<?xml version="1.0" standalone="no"?>
<svg xmlns="http://www.w3.org/2000/svg" width="100" height="100"><defs><clipPath id="clip-path-dot-color"><path d="M 8 44v 4h 4v -2a 2 2, 0, 0, 0, -2 -2" transform="rotate(-90,10,46)"/><rect x="8" y="48" width="4" height="4" transform="rotate(0,10,50)"/><path d="M 12 40v 4h 4v -2a 2 2, 0, 0, 0, -2 -2" transform="rotate(-90,14,42)"/><rect x="12" y="48" width="4" height="4" transform="rotate(0,14,50)"/><path d="M 12 52v 4h 4v -2a 2 2, 0, 0, 0, -2 -2" transform="rotate(90,14,54)"/><rect x="16" y="40" width="4" height="4" transform="rotate(0,18,42)"/><rect x="16" y="44" width="4" height="4" transform="rotate(0,18,46)"/><path d="M 16 48v 4h 4v -2a 2 2, 0, 0, 0, -2 -2" transform="rotate(90,18,50)"/><rect x="20" y="44" width="4" height="4" transform="rotate(0,22,46)"/><path d="M 20 52v 4h 4v -2a 2 2, 0, 0, 0, -2 -2" transform="rotate(-90,22,54)"/><rect x="20" y="56" width="4" height="4" transform="rotate(0,22,58)"/><rect x="24" y="44" width="4" height="4" transform="rotate(0,26,46)"/><path d="M 24 48v 4h 4v -2a 2 2, 0, 0, 0, -2 -2" transform="rotate(90,26,50)"/><path d="M 24 56v 4h 4v -2a 2 2, 0, 0, 0, -2 -2" transform="rotate(90,26,58)"/><path d="M 28 44v 4h 4v -2a 2 2, 0, 0, 0, -2 -2" transform="rotate(90,30,46)"/><path d="M 32 40v 2a 2 2, 0, 0, 0, 2 2h 2v -2a 2 2, 0, 0, 0, -2 -2" transform="rotate(90,34,42)"/><path d="M 32 48v 2a 2 2, 0, 0, 0, 2 2h 2v -2a 2 2, 0, 0, 0, -2 -2" transform="rotate(90,34,50)"/><path d="M 32 56v 4h 4v -2a 2 2, 0, 0, 0, -2 -2" transform="rotate(-90,34,58)"/><path d="M 36 44v 4h 4v -2a 2 2, 0, 0, 0, -2 -2" transform="rotate(-90,38,46)"/><path d="M 36 56v 4h 4v -2a 2 2, 0, 0, 0, -2 -2" transform="rotate(90,38,58)"/><path d="M 40 12v 4h 4v -2a 2 2, 0, 0, 0, -2 -2" transform="rotate(-90,42,14)"/><rect x="40" y="16" width="4" height="4" transform="rotate(0,42,18)"/><path d="M 40 20v 4h 4v -2a 2 2, 0, 0, 0, -2 -2" transform="rotate(90,42,22)"/><path d="M 40 28v 4h 4v -2a 2 2, 0, 0, 0, -2 -2" transform="rotate(-90,42,30)"/><path d="M 40 32v 4h 4v -2a 2 2, 0, 0, 0, -2 -2" transform="rotate(90,42,34)"/><rect x="40" y="44" width="4" height="4" transform="rotate(0,42,46)"/><rect x="40" y="48" width="4" height="4" transform="rotate(0,42,50)"/><path d="M 40 52v 4h 4v -2a 2 2, 0, 0, 0, -2 -2" transform="rotate(90,42,54)"/><path d="M 40 80v 4h 4v -2a 2 2, 0, 0, 0, -2 -2" transform="rotate(-90,42,82)"/><rect x="40" y="84" width="4" height="4" transform="rotate(0,42,86)"/><rect x="44" y="16" width="4" height="4" transform="rotate(0,46,18)"/><path d="M 44 24v 2a 2 2, 0, 0, 0, 2 2h 2v -2a 2 2, 0, 0, 0, -2 -2" transform="rotate(90,46,26)"/><path d="M 44 36v 4h 4v -2a 2 2, 0, 0, 0, -2 -2" transform="rotate(-90,46,38)"/><rect x="44" y="40" width="4" height="4" transform="rotate(0,46,42)"/><path d="M 44 60v 4h 4v -2a 2 2, 0, 0, 0, -2 -2" transform="rotate(-90,46,62)"/><rect x="44" y="64" width="4" height="4" transform="rotate(0,46,66)"/><path d="M 44 68v 4h 4v -2a 2 2, 0, 0, 0, -2 -2" transform="rotate(90,46,70)"/><path d="M 44 76v 4h 4v -2a 2 2, 0, 0, 0, -2 -2" transform="rotate(-90,46,78)"/><rect x="44" y="80" width="4" height="4" transform="rotate(0,46,82)"/><rect x="44" y="84" width="4" height="4" transform="rotate(0,46,86)"/><rect x="44" y="88" width="4" height="4" transform="rotate(0,46,90)"/><rect x="48" y="16" width="4" height="4" transform="rotate(0,50,18)"/><path d="M 48 20v 4h 4v -2a 2 2, 0, 0, 0, -2 -2" transform="rotate(90,50,22)"/><path d="M 48 28v 4h 4v -2a 2 2, 0, 0, 0, -2 -2" transform="rotate(-90,50,30)"/><rect x="48" y="32" width="4" height="4" transform="rotate(0,50,34)"/><rect x="48" y="36" width="4" height="4" transform="rotate(0,50,38)"/><path d="M 48 40v 4h 4v -2a 2 2, 0, 0, 0, -2 -2" transform="rotate(90,50,42)"/><path d="M 48 52v 4h 4v -2a 2 2, 0, 0, 0, -2 -2" transform="rotate(-90,50,54)"/><rect x="48" y="56" width="4" height="4" transform="rotate(0,50,58)"/><rect x="48" y="84" width="4" height="4" transform="rotate(0,50,86)"/><rect x="48" y="88" width="4" height="4" transform="rotate(0,50,90)"/><path d="M 52 8v 2a 2 2, 0, 0, 0, 2 2h 2v -2a 2 2, 0, 0, 0, -2 -2" transform="rotate(90,54,10)"/><path d="M 52 16v 4h 4v -2a 2 2, 0, 0, 0, -2 -2" transform="rotate(90,54,18)"/><path d="M 52 24v 2a 2 2, 0, 0, 0, 2 2h 2v -2a 2 2, 0, 0, 0, -2 -2" transform="rotate(90,54,26)"/><rect x="52" y="36" width="4" height="4" transform="rotate(0,54,38)"/><path d="M 52 48v 2a 2 2, 0, 0, 0, 2 2h 2v -2a 2 2, 0, 0, 0, -2 -2" transform="rotate(90,54,50)"/><path d="M 52 56v 4h 4v -2a 2 2, 0, 0, 0, -2 -2" transform="rotate(90,54,58)"/><path d="M 52 64v 4h 4v -2a 2 2, 0, 0, 0, -2 -2" transform="rotate(-90,54,66)"/><rect x="52" y="68" width="4" height="4" transform="rotate(0,54,70)"/><rect x="52" y="72" width="4" height="4" transform="rotate(0,54,74)"/><path d="M 52 76v 4h 4v -2a 2 2, 0, 0, 0, -2 -2" transform="rotate(90,54,78)"/><rect x="52" y="84" width="4" height="4" transform="rotate(0,54,86)"/><rect x="52" y="88" width="4" height="4" transform="rotate(0,54,90)"/><path d="M 56 12v 2a 2 2, 0, 0, 0, 2 2h 2v -2a 2 2, 0, 0, 0, -2 -2" transform="rotate(90,58,14)"/><path d="M 56 20v 2a 2 2, 0, 0, 0, 2 2h 2v -2a 2 2, 0, 0, 0, -2 -2" transform="rotate(90,58,22)"/><path d="M 56 28v 4h 4v -2a 2 2, 0, 0, 0, -2 -2" transform="rotate(-90,58,30)"/><rect x="56" y="32" width="4" height="4" transform="rotate(0,58,34)"/><rect x="56" y="36" width="4" height="4" transform="rotate(0,58,38)"/><rect x="56" y="40" width="4" height="4" transform="rotate(0,58,42)"/><path d="M 56 52v 4h 4v -2a 2 2, 0, 0, 0, -2 -2" transform="rotate(-90,58,54)"/><rect x="56" y="68" width="4" height="4" transform="rotate(0,58,70)"/><rect x="56" y="72" width="4" height="4" transform="rotate(0,58,74)"/><rect x="56" y="88" width="4" height="4" transform="rotate(0,58,90)"/><rect x="60" y="40" width="4" height="4" transform="rotate(0,62,42)"/><rect x="60" y="44" width="4" height="4" transform="rotate(0,62,46)"/><rect x="60" y="48" width="4" height="4" transform="rotate(0,62,50)"/><rect x="60" y="52" width="4" height="4" transform="rotate(0,62,54)"/><path d="M 60 64v 4h 4v -2a 2 2, 0, 0, 0, -2 -2" transform="rotate(-90,62,66)"/><rect x="60" y="68" width="4" height="4" transform="rotate(0,62,70)"/><rect x="60" y="72" width="4" height="4" transform="rotate(0,62,74)"/><path d="M 60 80v 2a 2 2, 0, 0, 0, 2 2h 2v -2a 2 2, 0, 0, 0, -2 -2" transform="rotate(90,62,82)"/><path d="M 60 88v 4h 4v -2a 2 2, 0, 0, 0, -2 -2" transform="rotate(90,62,90)"/><rect x="64" y="52" width="4" height="4" transform="rotate(0,66,54)"/><rect x="64" y="68" width="4" height="4" transform="rotate(0,66,70)"/><rect x="64" y="72" width="4" height="4" transform="rotate(0,66,74)"/><rect x="64" y="76" width="4" height="4" transform="rotate(0,66,78)"/><path d="M 68 40v 4h 4v -2a 2 2, 0, 0, 0, -2 -2" transform="rotate(-90,70,42)"/><rect x="68" y="44" width="4" height="4" transform="rotate(0,70,46)"/><rect x="68" y="52" width="4" height="4" transform="rotate(0,70,54)"/><rect x="68" y="56" width="4" height="4" transform="rotate(0,70,58)"/><rect x="68" y="68" width="4" height="4" transform="rotate(0,70,70)"/><rect x="68" y="72" width="4" height="4" transform="rotate(0,70,74)"/><rect x="68" y="76" width="4" height="4" transform="rotate(0,70,78)"/><rect x="68" y="80" width="4" height="4" transform="rotate(0,70,82)"/><rect x="68" y="84" width="4" height="4" transform="rotate(0,70,86)"/><rect x="68" y="88" width="4" height="4" transform="rotate(0,70,90)"/><rect x="72" y="44" width="4" height="4" transform="rotate(0,74,46)"/><rect x="72" y="56" width="4" height="4" transform="rotate(0,74,58)"/><rect x="72" y="60" width="4" height="4" transform="rotate(0,74,62)"/><rect x="72" y="64" width="4" height="4" transform="rotate(0,74,66)"/><path d="M 72 68v 4h 4v -2a 2 2, 0, 0, 0, -2 -2" transform="rotate(90,74,70)"/><rect x="72" y="80" width="4" height="4" transform="rotate(0,74,82)"/><rect x="72" y="84" width="4" height="4" transform="rotate(0,74,86)"/><path d="M 72 88v 4h 4v -2a 2 2, 0, 0, 0, -2 -2" transform="rotate(90,74,90)"/><path d="M 76 40v 4h 4v -2a 2 2, 0, 0, 0, -2 -2" transform="rotate(-90,78,42)"/><rect x="76" y="44" width="4" height="4" transform="rotate(0,78,46)"/><rect x="76" y="48" width="4" height="4" transform="rotate(0,78,50)"/><path d="M 76 52v 4h 4v -2a 2 2, 0, 0, 0, -2 -2" transform="rotate(90,78,54)"/><rect x="76" y="64" width="4" height="4" transform="rotate(0,78,66)"/><path d="M 76 84v 4h 4v -2a 2 2, 0, 0, 0, -2 -2" transform="rotate(90,78,86)"/><rect x="80" y="40" width="4" height="4" transform="rotate(0,82,42)"/><path d="M 80 56v 2a 2 2, 0, 0, 0, 2 2h 2v -2a 2 2, 0, 0, 0, -2 -2" transform="rotate(90,82,58)"/><path d="M 80 64v 4h 4v -2a 2 2, 0, 0, 0, -2 -2" transform="rotate(90,82,66)"/><path d="M 80 80v 2a 2 2, 0, 0, 0, 2 2h 2v -2a 2 2, 0, 0, 0, -2 -2" transform="rotate(90,82,82)"/><path d="M 84 40v 4h 4v -2a 2 2, 0, 0, 0, -2 -2" transform="rotate(90,86,42)"/><path d="M 84 48v 2a 2 2, 0, 0, 0, 2 2h 2v -2a 2 2, 0, 0, 0, -2 -2" transform="rotate(90,86,50)"/><path d="M 84 60v 4h 4v -2a 2 2, 0, 0, 0, -2 -2" transform="rotate(-90,86,62)"/><path d="M 84 68v 2a 2 2, 0, 0, 0, 2 2h 2v -2a 2 2, 0, 0, 0, -2 -2" transform="rotate(90,86,70)"/><path d="M 84 88v 2a 2 2, 0, 0, 0, 2 2h 2v -2a 2 2, 0, 0, 0, -2 -2" transform="rotate(90,86,90)"/><path d="M 88 60v 4h 4v -2a 2 2, 0, 0, 0, -2 -2" transform="rotate(90,90,62)"/><path d="M 88 80v 2a 2 2, 0, 0, 0, 2 2h 2v -2a 2 2, 0, 0, 0, -2 -2" transform="rotate(90,90,82)"/><path d="M 8 8v 4h 4v -2a 2 2, 0, 0, 0, -2 -2" transform="rotate(-90,10,10)"/><rect x="8" y="12" width="4" height="4" transform="rotate(0,10,14)"/><rect x="8" y="16" width="4" height="4" transform="rotate(0,10,18)"/><rect x="8" y="20" width="4" height="4" transform="rotate(0,10,22)"/><rect x="8" y="24" width="4" height="4" transform="rotate(0,10,26)"/><rect x="8" y="28" width="4" height="4" transform="rotate(0,10,30)"/><rect x="8" y="32" width="4" height="4" transform="rotate(0,10,34)"/><rect x="12" y="8" width="4" height="4" transform="rotate(0,14,10)"/><rect x="12" y="32" width="4" height="4" transform="rotate(0,14,34)"/><rect x="16" y="8" width="4" height="4" transform="rotate(0,18,10)"/><rect x="16" y="32" width="4" height="4" transform="rotate(0,18,34)"/><rect x="20" y="8" width="4" height="4" transform="rotate(0,22,10)"/><rect x="20" y="32" width="4" height="4" transform="rotate(0,22,34)"/><rect x="24" y="8" width="4" height="4" transform="rotate(0,26,10)"/><rect x="24" y="32" width="4" height="4" transform="rotate(0,26,34)"/><rect x="28" y="8" width="4" height="4" transform="rotate(0,30,10)"/><rect x="28" y="32" width="4" height="4" transform="rotate(0,30,34)"/><rect x="32" y="8" width="4" height="4" transform="rotate(0,34,10)"/><rect x="32" y="12" width="4" height="4" transform="rotate(0,34,14)"/><rect x="32" y="16" width="4" height="4" transform="rotate(0,34,18)"/><rect x="32" y="20" width="4" height="4" transform="rotate(0,34,22)"/><rect x="32" y="24" width="4" height="4" transform="rotate(0,34,26)"/><rect x="32" y="28" width="4" height="4" transform="rotate(0,34,30)"/><path d="M 32 32v 4h 4v -2a 2 2, 0, 0, 0, -2 -2" transform="rotate(90,34,34)"/><path d="M 16 16v 4h 4v -2a 2 2, 0, 0, 0, -2 -2" transform="rotate(-90,18,18)"/><rect x="16" y="20" width="4" height="4" transform="rotate(0,18,22)"/><rect x="16" y="24" width="4" height="4" transform="rotate(0,18,26)"/><rect x="20" y="16" width="4" height="4" transform="rotate(0,22,18)"/><rect x="20" y="20" width="4" height="4" transform="rotate(0,22,22)"/><rect x="20" y="24" width="4" height="4" transform="rotate(0,22,26)"/><rect x="24" y="16" width="4" height="4" transform="rotate(0,26,18)"/><rect x="24" y="20" width="4" height="4" transform="rotate(0,26,22)"/><path d="M 24 24v 4h 4v -2a 2 2, 0, 0, 0, -2 -2" transform="rotate(90,26,26)"/><path d="M 64 8v 4h 4v -2a 2 2, 0, 0, 0, -2 -2" transform="rotate(-90,66,10)"/><rect x="64" y="12" width="4" height="4" transform="rotate(0,66,14)"/><rect x="64" y="16" width="4" height="4" transform="rotate(0,66,18)"/><rect x="64" y="20" width="4" height="4" transform="rotate(0,66,22)"/><rect x="64" y="24" width="4" height="4" transform="rotate(0,66,26)"/><rect x="64" y="28" width="4" height="4" transform="rotate(0,66,30)"/><rect x="64" y="32" width="4" height="4" transform="rotate(0,66,34)"/><rect x="68" y="8" width="4" height="4" transform="rotate(0,70,10)"/><rect x="68" y="32" width="4" height="4" transform="rotate(0,70,34)"/><rect x="72" y="8" width="4" height="4" transform="rotate(0,74,10)"/><rect x="72" y="32" width="4" height="4" transform="rotate(0,74,34)"/><rect x="76" y="8" width="4" height="4" transform="rotate(0,78,10)"/><rect x="76" y="32" width="4" height="4" transform="rotate(0,78,34)"/><rect x="80" y="8" width="4" height="4" transform="rotate(0,82,10)"/><rect x="80" y="32" width="4" height="4" transform="rotate(0,82,34)"/><rect x="84" y="8" width="4" height="4" transform="rotate(0,86,10)"/><rect x="84" y="32" width="4" height="4" transform="rotate(0,86,34)"/><rect x="88" y="8" width="4" height="4" transform="rotate(0,90,10)"/><rect x="88" y="12" width="4" height="4" transform="rotate(0,90,14)"/><rect x="88" y="16" width="4" height="4" transform="rotate(0,90,18)"/><rect x="88" y="20" width="4" height="4" transform="rotate(0,90,22)"/><rect x="88" y="24" width="4" height="4" transform="rotate(0,90,26)"/><rect x="88" y="28" width="4" height="4" transform="rotate(0,90,30)"/><path d="M 88 32v 4h 4v -2a 2 2, 0, 0, 0, -2 -2" transform="rotate(90,90,34)"/><path d="M 72 16v 4h 4v -2a 2 2, 0, 0, 0, -2 -2" transform="rotate(-90,74,18)"/><rect x="72" y="20" width="4" height="4" transform="rotate(0,74,22)"/><rect x="72" y="24" width="4" height="4" transform="rotate(0,74,26)"/><rect x="76" y="16" width="4" height="4" transform="rotate(0,78,18)"/><rect x="76" y="20" width="4" height="4" transform="rotate(0,78,22)"/><rect x="76" y="24" width="4" height="4" transform="rotate(0,78,26)"/><rect x="80" y="16" width="4" height="4" transform="rotate(0,82,18)"/><rect x="80" y="20" width="4" height="4" transform="rotate(0,82,22)"/><path d="M 80 24v 4h 4v -2a 2 2, 0, 0, 0, -2 -2" transform="rotate(90,82,26)"/><path d="M 8 64v 4h 4v -2a 2 2, 0, 0, 0, -2 -2" transform="rotate(-90,10,66)"/><rect x="8" y="68" width="4" height="4" transform="rotate(0,10,70)"/><rect x="8" y="72" width="4" height="4" transform="rotate(0,10,74)"/><rect x="8" y="76" width="4" height="4" transform="rotate(0,10,78)"/><rect x="8" y="80" width="4" height="4" transform="rotate(0,10,82)"/><rect x="8" y="84" width="4" height="4" transform="rotate(0,10,86)"/><rect x="8" y="88" width="4" height="4" transform="rotate(0,10,90)"/><rect x="12" y="64" width="4" height="4" transform="rotate(0,14,66)"/><rect x="12" y="88" width="4" height="4" transform="rotate(0,14,90)"/><rect x="16" y="64" width="4" height="4" transform="rotate(0,18,66)"/><rect x="16" y="88" width="4" height="4" transform="rotate(0,18,90)"/><rect x="20" y="64" width="4" height="4" transform="rotate(0,22,66)"/><rect x="20" y="88" width="4" height="4" transform="rotate(0,22,90)"/><rect x="24" y="64" width="4" height="4" transform="rotate(0,26,66)"/><rect x="24" y="88" width="4" height="4" transform="rotate(0,26,90)"/><rect x="28" y="64" width="4" height="4" transform="rotate(0,30,66)"/><rect x="28" y="88" width="4" height="4" transform="rotate(0,30,90)"/><rect x="32" y="64" width="4" height="4" transform="rotate(0,34,66)"/><rect x="32" y="68" width="4" height="4" transform="rotate(0,34,70)"/><rect x="32" y="72" width="4" height="4" transform="rotate(0,34,74)"/><rect x="32" y="76" width="4" height="4" transform="rotate(0,34,78)"/><rect x="32" y="80" width="4" height="4" transform="rotate(0,34,82)"/><rect x="32" y="84" width="4" height="4" transform="rotate(0,34,86)"/><path d="M 32 88v 4h 4v -2a 2 2, 0, 0, 0, -2 -2" transform="rotate(90,34,90)"/><path d="M 16 72v 4h 4v -2a 2 2, 0, 0, 0, -2 -2" transform="rotate(-90,18,74)"/><rect x="16" y="76" width="4" height="4" transform="rotate(0,18,78)"/><rect x="16" y="80" width="4" height="4" transform="rotate(0,18,82)"/><rect x="20" y="72" width="4" height="4" transform="rotate(0,22,74)"/><rect x="20" y="76" width="4" height="4" transform="rotate(0,22,78)"/><rect x="20" y="80" width="4" height="4" transform="rotate(0,22,82)"/><rect x="24" y="72" width="4" height="4" transform="rotate(0,26,74)"/><rect x="24" y="76" width="4" height="4" transform="rotate(0,26,78)"/><path d="M 24 80v 4h 4v -2a 2 2, 0, 0, 0, -2 -2" transform="rotate(90,26,82)"/></clipPath></defs><rect x="0" y="0" height="100" width="100" clip-path="url('#clip-path-background-color')" fill="#fff"/><rect x="8" y="8" height="84" width="84" clip-path="url('#clip-path-dot-color')" fill="#000"/></svg>