<?xml version="1.0" standalone="no"?>
<svg xmlns="http://www.w3.org/2000/svg" width="100" height="100"><defs><clipPath id="clip-path-dot-color"><circle cx="10" cy="46" r="2" transform="rotate(0,10,46)"/><circle cx="10" cy="50" r="2" transform="rotate(0,10,50)"/><circle cx="14" cy="42" r="2" transform="rotate(0,14,42)"/><circle cx="14" cy="50" r="2" transform="rotate(0,14,50)"/><circle cx="14" cy="54" r="2" transform="rotate(0,14,54)"/><circle cx="18" cy="42" r="2" transform="rotate(0,18,42)"/><circle cx="18" cy="46" r="2" transform="rotate(0,18,46)"/><circle cx="18" cy="50" r="2" transform="rotate(0,18,50)"/><circle cx="22" cy="46" r="2" transform="rotate(0,22,46)"/><circle cx="22" cy="54" r="2" transform="rotate(0,22,54)"/><circle cx="22" cy="58" r="2" transform="rotate(0,22,58)"/><circle cx="26" cy="46" r="2" transform="rotate(0,26,46)"/><circle cx="26" cy="50" r="2" transform="rotate(0,26,50)"/><circle cx="26" cy="58" r="2" transform="rotate(0,26,58)"/><circle cx="30" cy="46" r="2" transform="rotate(0,30,46)"/><circle cx="34" cy="42" r="2" transform="rotate(0,34,42)"/><circle cx="34" cy="50" r="2" transform="rotate(0,34,50)"/><circle cx="34" cy="58" r="2" transform="rotate(0,34,58)"/><circle cx="38" cy="46" r="2" transform="rotate(0,38,46)"/><circle cx="38" cy="58" r="2" transform="rotate(0,38,58)"/><circle cx="42" cy="14" r="2" transform="rotate(0,42,14)"/><circle cx="42" cy="18" r="2" transform="rotate(0,42,18)"/><circle cx="42" cy="22" r="2" transform="rotate(0,42,22)"/><circle cx="42" cy="30" r="2" transform="rotate(0,42,30)"/><circle cx="42" cy="34" r="2" transform="rotate(0,42,34)"/><circle cx="42" cy="46" r="2" transform="rotate(0,42,46)"/><circle cx="42" cy="50" r="2" transform="rotate(0,42,50)"/><circle cx="42" cy="54" r="2" transform="rotate(0,42,54)"/><circle cx="42" cy="82" r="2" transform="rotate(0,42,82)"/><circle cx="42" cy="86" r="2" transform="rotate(0,42,86)"/><circle cx="46" cy="18" r="2" transform="rotate(0,46,18)"/><circle cx="46" cy="26" r="2" transform="rotate(0,46,26)"/><circle cx="46" cy="38" r="2" transform="rotate(0,46,38)"/><circle cx="46" cy="42" r="2" transform="rotate(0,46,42)"/><circle cx="46" cy="62" r="2" transform="rotate(0,46,62)"/><circle cx="46" cy="66" r="2" transform="rotate(0,46,66)"/><circle cx="46" cy="70" r="2" transform="rotate(0,46,70)"/><circle cx="46" cy="78" r="2" transform="rotate(0,46,78)"/><circle cx="46" cy="82" r="2" transform="rotate(0,46,82)"/><circle cx="46" cy="86" r="2" transform="rotate(0,46,86)"/><circle cx="46" cy="90" r="2" transform="rotate(0,46,90)"/><circle cx="50" cy="18" r="2" transform="rotate(0,50,18)"/><circle cx="50" cy="22" r="2" transform="rotate(0,50,22)"/><circle cx="50" cy="30" r="2" transform="rotate(0,50,30)"/><circle cx="50" cy="34" r="2" transform="rotate(0,50,34)"/><circle cx="50" cy="38" r="2" transform="rotate(0,50,38)"/><circle cx="50" cy="42" r="2" transform="rotate(0,50,42)"/><circle cx="50" cy="54" r="2" transform="rotate(0,50,54)"/><circle cx="50" cy="58" r="2" transform="rotate(0,50,58)"/><circle cx="50" cy="86" r="2" transform="rotate(0,50,86)"/><circle cx="50" cy="90" r="2" transform="rotate(0,50,90)"/><circle cx="54" cy="10" r="2" transform="rotate(0,54,10)"/><circle cx="54" cy="18" r="2" transform="rotate(0,54,18)"/><circle cx="54" cy="26" r="2" transform="rotate(0,54,26)"/><circle cx="54" cy="38" r="2" transform="rotate(0,54,38)"/><circle cx="54" cy="50" r="2" transform="rotate(0,54,50)"/><circle cx="54" cy="58" r="2" transform="rotate(0,54,58)"/><circle cx="54" cy="66" r="2" transform="rotate(0,54,66)"/><circle cx="54" cy="70" r="2" transform="rotate(0,54,70)"/><circle cx="54" cy="74" r="2" transform="rotate(0,54,74)"/><circle cx="54" cy="78" r="2" transform="rotate(0,54,78)"/><circle cx="54" cy="86" r="2" transform="rotate(0,54,86)"/><circle cx="54" cy="90" r="2" transform="rotate(0,54,90)"/><circle cx="58" cy="14" r="2" transform="rotate(0,58,14)"/><circle cx="58" cy="22" r="2" transform="rotate(0,58,22)"/><circle cx="58" cy="30" r="2" transform="rotate(0,58,30)"/><circle cx="58" cy="34" r="2" transform="rotate(0,58,34)"/><circle cx="58" cy="38" r="2" transform="rotate(0,58,38)"/><circle cx="58" cy="42" r="2" transform="rotate(0,58,42)"/><circle cx="58" cy="54" r="2" transform="rotate(0,58,54)"/><circle cx="58" cy="70" r="2" transform="rotate(0,58,70)"/><circle cx="58" cy="74" r="2" transform="rotate(0,58,74)"/><circle cx="58" cy="90" r="2" transform="rotate(0,58,90)"/><circle cx="62" cy="42" r="2" transform="rotate(0,62,42)"/><circle cx="62" cy="46" r="2" transform="rotate(0,62,46)"/><circle cx="62" cy="50" r="2" transform="rotate(0,62,50)"/><circle cx="62" cy="54" r="2" transform="rotate(0,62,54)"/><circle cx="62" cy="66" r="2" transform="rotate(0,62,66)"/><circle cx="62" cy="70" r="2" transform="rotate(0,62,70)"/><circle cx="62" cy="74" r="2" transform="rotate(0,62,74)"/><circle cx="62" cy="82" r="2" transform="rotate(0,62,82)"/><circle cx="62" cy="90" r="2" transform="rotate(0,62,90)"/><circle cx="66" cy="54" r="2" transform="rotate(0,66,54)"/><circle cx="66" cy="70" r="2" transform="rotate(0,66,70)"/><circle cx="66" cy="74" r="2" transform="rotate(0,66,74)"/><circle cx="66" cy="78" r="2" transform="rotate(0,66,78)"/><circle cx="70" cy="42" r="2" transform="rotate(0,70,42)"/><circle cx="70" cy="46" r="2" transform="rotate(0,70,46)"/><circle cx="70" cy="54" r="2" transform="rotate(0,70,54)"/><circle cx="70" cy="58" r="2" transform="rotate(0,70,58)"/><circle cx="70" cy="70" r="2" transform="rotate(0,70,70)"/><circle cx="70" cy="74" r="2" transform="rotate(0,70,74)"/><circle cx="70" cy="78" r="2" transform="rotate(0,70,78)"/><circle cx="70" cy="82" r="2" transform="rotate(0,70,82)"/><circle cx="70" cy="86" r="2" transform="rotate(0,70,86)"/><circle cx="70" cy="90" r="2" transform="rotate(0,70,90)"/><circle cx="74" cy="46" r="2" transform="rotate(0,74,46)"/><circle cx="74" cy="58" r="2" transform="rotate(0,74,58)"/><circle cx="74" cy="62" r="2" transform="rotate(0,74,62)"/><circle cx="74" cy="66" r="2" transform="rotate(0,74,66)"/><circle cx="74" cy="70" r="2" transform="rotate(0,74,70)"/><circle cx="74" cy="82" r="2" transform="rotate(0,74,82)"/><circle cx="74" cy="86" r="2" transform="rotate(0,74,86)"/><circle cx="74" cy="90" r="2" transform="rotate(0,74,90)"/><circle cx="78" cy="42" r="2" transform="rotate(0,78,42)"/><circle cx="78" cy="46" r="2" transform="rotate(0,78,46)"/><circle cx="78" cy="50" r="2" transform="rotate(0,78,50)"/><circle cx="78" cy="54" r="2" transform="rotate(0,78,54)"/><circle cx="78" cy="66" r="2" transform="rotate(0,78,66)"/><circle cx="78" cy="86" r="2" transform="rotate(0,78,86)"/><circle cx="82" cy="42" r="2" transform="rotate(0,82,42)"/><circle cx="82" cy="58" r="2" transform="rotate(0,82,58)"/><circle cx="82" cy="66" r="2" transform="rotate(0,82,66)"/><circle cx="82" cy="82" r="2" transform="rotate(0,82,82)"/><circle cx="86" cy="42" r="2" transform="rotate(0,86,42)"/><circle cx="86" cy="50" r="2" transform="rotate(0,86,50)"/><circle cx="86" cy="62" r="2" transform="rotate(0,86,62)"/><circle cx="86" cy="70" r="2" transform="rotate(0,86,70)"/><circle cx="86" cy="90" r="2" transform="rotate(0,86,90)"/><circle cx="90" cy="62" r="2" transform="rotate(0,90,62)"/><circle cx="90" cy="82" r="2" transform="rotate(0,90,82)"/><circle cx="10" cy="10" r="2" transform="rotate(0,10,10)"/><circle cx="10" cy="14" r="2" transform="rotate(0,10,14)"/><circle cx="10" cy="18" r="2" transform="rotate(0,10,18)"/><circle cx="10" cy="22" r="2" transform="rotate(0,10,22)"/><circle cx="10" cy="26" r="2" transform="rotate(0,10,26)"/><circle cx="10" cy="30" r="2" transform="rotate(0,10,30)"/><circle cx="10" cy="34" r="2" transform="rotate(0,10,34)"/><circle cx="14" cy="10" r="2" transform="rotate(0,14,10)"/><circle cx="14" cy="34" r="2" transform="rotate(0,14,34)"/><circle cx="18" cy="10" r="2" transform="rotate(0,18,10)"/><circle cx="18" cy="34" r="2" transform="rotate(0,18,34)"/><circle cx="22" cy="10" r="2" transform="rotate(0,22,10)"/><circle cx="22" cy="34" r="2" transform="rotate(0,22,34)"/><circle cx="26" cy="10" r="2" transform="rotate(0,26,10)"/><circle cx="26" cy="34" r="2" transform="rotate(0,26,34)"/><circle cx="30" cy="10" r="2" transform="rotate(0,30,10)"/><circle cx="30" cy="34" r="2" transform="rotate(0,30,34)"/><circle cx="34" cy="10" r="2" transform="rotate(0,34,10)"/><circle cx="34" cy="14" r="2" transform="rotate(0,34,14)"/><circle cx="34" cy="18" r="2" transform="rotate(0,34,18)"/><circle cx="34" cy="22" r="2" transform="rotate(0,34,22)"/><circle cx="34" cy="26" r="2" transform="rotate(0,34,26)"/><circle cx="34" cy="30" r="2" transform="rotate(0,34,30)"/><circle cx="34" cy="34" r="2" transform="rotate(0,34,34)"/><circle cx="18" cy="18" r="2" transform="rotate(0,18,18)"/><circle cx="18" cy="22" r="2" transform="rotate(0,18,22)"/><circle cx="18" cy="26" r="2" transform="rotate(0,18,26)"/><circle cx="22" cy="18" r="2" transform="rotate(0,22,18)"/><circle cx="22" cy="22" r="2" transform="rotate(0,22,22)"/><circle cx="22" cy="26" r="2" transform="rotate(0,22,26)"/><circle cx="26" cy="18" r="2" transform="rotate(0,26,18)"/><circle cx="26" cy="22" r="2" transform="rotate(0,26,22)"/><circle cx="26" cy="26" r="2" transform="rotate(0,26,26)"/><circle cx="66" cy="10" r="2" transform="rotate(0,66,10)"/><circle cx="66" cy="14" r="2" transform="rotate(0,66,14)"/><circle cx="66" cy="18" r="2" transform="rotate(0,66,18)"/><circle cx="66" cy="22" r="2" transform="rotate(0,66,22)"/><circle cx="66" cy="26" r="2" transform="rotate(0,66,26)"/><circle cx="66" cy="30" r="2" transform="rotate(0,66,30)"/><circle cx="66" cy="34" r="2" transform="rotate(0,66,34)"/><circle cx="70" cy="10" r="2" transform="rotate(0,70,10)"/><circle cx="70" cy="34" r="2" transform="rotate(0,70,34)"/><circle cx="74" cy="10" r="2" transform="rotate(0,74,10)"/><circle cx="74" cy="34" r="2" transform="rotate(0,74,34)"/><circle cx="78" cy="10" r="2" transform="rotate(0,78,10)"/><circle cx="78" cy="34" r="2" transform="rotate(0,78,34)"/><circle cx="82" cy="10" r="2" transform="rotate(0,82,10)"/><circle cx="82" cy="34" r="2" transform="rotate(0,82,34)"/><circle cx="86" cy="10" r="2" transform="rotate(0,86,10)"/><circle cx="86" cy="34" r="2" transform="rotate(0,86,34)"/><circle cx="90" cy="10" r="2" transform="rotate(0,90,10)"/><circle cx="90" cy="14" r="2" transform="rotate(0,90,14)"/><circle cx="90" cy="18" r="2" transform="rotate(0,90,18)"/><circle cx="90" cy="22" r="2" transform="rotate(0,90,22)"/><circle cx="90" cy="26" r="2" transform="rotate(0,90,26)"/><circle cx="90" cy="30" r="2" transform="rotate(0,90,30)"/><circle cx="90" cy="34" r="2" transform="rotate(0,90,34)"/><circle cx="74" cy="18" r="2" transform="rotate(0,74,18)"/><circle cx="74" cy="22" r="2" transform="rotate(0,74,22)"/><circle cx="74" cy="26" r="2" transform="rotate(0,74,26)"/><circle cx="78" cy="18" r="2" transform="rotate(0,78,18)"/><circle cx="78" cy="22" r="2" transform="rotate(0,78,22)"/><circle cx="78" cy="26" r="2" transform="rotate(0,78,26)"/><circle cx="82" cy="18" r="2" transform="rotate(0,82,18)"/><circle cx="82" cy="22" r="2" transform="rotate(0,82,22)"/><circle cx="82" cy="26" r="2" transform="rotate(0,82,26)"/><circle cx="10" cy="66" r="2" transform="rotate(0,10,66)"/><circle cx="10" cy="70" r="2" transform="rotate(0,10,70)"/><circle cx="10" cy="74" r="2" transform="rotate(0,10,74)"/><circle cx="10" cy="78" r="2" transform="rotate(0,10,78)"/><circle cx="10" cy="82" r="2" transform="rotate(0,10,82)"/><circle cx="10" cy="86" r="2" transform="rotate(0,10,86)"/><circle cx="10" cy="90" r="2" transform="rotate(0,10,90)"/><circle cx="14" cy="66" r="2" transform="rotate(0,14,66)"/><circle cx="14" cy="90" r="2" transform="rotate(0,14,90)"/><circle cx="18" cy="66" r="2" transform="rotate(0,18,66)"/><circle cx="18" cy="90" r="2" transform="rotate(0,18,90)"/><circle cx="22" cy="66" r="2" transform="rotate(0,22,66)"/><circle cx="22" cy="90" r="2" transform="rotate(0,22,90)"/><circle cx="26" cy="66" r="2" transform="rotate(0,26,66)"/><circle cx="26" cy="90" r="2" transform="rotate(0,26,90)"/><circle cx="30" cy="66" r="2" transform="rotate(0,30,66)"/><circle cx="30" cy="90" r="2" transform="rotate(0,30,90)"/><circle cx="34" cy="66" r="2" transform="rotate(0,34,66)"/><circle cx="34" cy="70" r="2" transform="rotate(0,34,70)"/><circle cx="34" cy="74" r="2" transform="rotate(0,34,74)"/><circle cx="34" cy="78" r="2" transform="rotate(0,34,78)"/><circle cx="34" cy="82" r="2" transform="rotate(0,34,82)"/><circle cx="34" cy="86" r="2" transform="rotate(0,34,86)"/><circle cx="34" cy="90" r="2" transform="rotate(0,34,90)"/><circle cx="18" cy="74" r="2" transform="rotate(0,18,74)"/><circle cx="18" cy="78" r="2" transform="rotate(0,18,78)"/><circle cx="18" cy="82" r="2" transform="rotate(0,18,82)"/><circle cx="22" cy="74" r="2" transform="rotate(0,22,74)"/><circle cx="22" cy="78" r="2" transform="rotate(0,22,78)"/><circle cx="22" cy="82" r="2" transform="rotate(0,22,82)"/><circle cx="26" cy="74" r="2" transform="rotate(0,26,74)"/><circle cx="26" cy="78" r="2" transform="rotate(0,26,78)"/><circle cx="26" cy="82" r="2" transform="rotate(0,26,82)"/></clipPath></defs><rect x="0" y="0" height="100" width="100" clip-path="url('#clip-path-background-color')" fill="#fff"/><rect x="8" y="8" height="84" width="84" clip-path="url('#clip-path-dot-color')" fill="#000"/></svg>