<?xml version="1.0" standalone="no"?>
<svg xmlns="http://www.w3.org/2000/svg" width="100" height="100"><defs><clipPath id="clip-path-dot-color"><rect x="8" y="44" width="4" height="4" transform="rotate(0,10,46)"/><rect x="8" y="48" width="4" height="4" transform="rotate(0,10,50)"/><rect x="12" y="40" width="4" height="4" transform="rotate(0,14,42)"/><rect x="12" y="48" width="4" height="4" transform="rotate(0,14,50)"/><rect x="12" y="52" width="4" height="4" transform="rotate(0,14,54)"/><rect x="16" y="40" width="4" height="4" transform="rotate(0,18,42)"/><rect x="16" y="44" width="4" height="4" transform="rotate(0,18,46)"/><rect x="16" y="48" width="4" height="4" transform="rotate(0,18,50)"/><rect x="20" y="44" width="4" height="4" transform="rotate(0,22,46)"/><rect x="20" y="52" width="4" height="4" transform="rotate(0,22,54)"/><rect x="20" y="56" width="4" height="4" transform="rotate(0,22,58)"/><rect x="24" y="44" width="4" height="4" transform="rotate(0,26,46)"/><rect x="24" y="48" width="4" height="4" transform="rotate(0,26,50)"/><rect x="24" y="56" width="4" height="4" transform="rotate(0,26,58)"/><rect x="28" y="44" width="4" height="4" transform="rotate(0,30,46)"/><rect x="32" y="40" width="4" height="4" transform="rotate(0,34,42)"/><rect x="32" y="48" width="4" height="4" transform="rotate(0,34,50)"/><rect x="32" y="56" width="4" height="4" transform="rotate(0,34,58)"/><rect x="36" y="44" width="4" height="4" transform="rotate(0,38,46)"/><rect x="36" y="56" width="4" height="4" transform="rotate(0,38,58)"/><rect x="40" y="12" width="4" height="4" transform="rotate(0,42,14)"/><rect x="40" y="16" width="4" height="4" transform="rotate(0,42,18)"/><rect x="40" y="20" width="4" height="4" transform="rotate(0,42,22)"/><rect x="40" y="28" width="4" height="4" transform="rotate(0,42,30)"/><rect x="40" y="32" width="4" height="4" transform="rotate(0,42,34)"/><rect x="40" y="44" width="4" height="4" transform="rotate(0,42,46)"/><rect x="40" y="48" width="4" height="4" transform="rotate(0,42,50)"/><rect x="40" y="52" width="4" height="4" transform="rotate(0,42,54)"/><rect x="40" y="80" width="4" height="4" transform="rotate(0,42,82)"/><rect x="40" y="84" width="4" height="4" transform="rotate(0,42,86)"/><rect x="44" y="16" width="4" height="4" transform="rotate(0,46,18)"/><rect x="44" y="24" width="4" height="4" transform="rotate(0,46,26)"/><rect x="44" y="36" width="4" height="4" transform="rotate(0,46,38)"/><rect x="44" y="40" width="4" height="4" transform="rotate(0,46,42)"/><rect x="44" y="60" width="4" height="4" transform="rotate(0,46,62)"/><rect x="44" y="64" width="4" height="4" transform="rotate(0,46,66)"/><rect x="44" y="68" width="4" height="4" transform="rotate(0,46,70)"/><rect x="44" y="76" width="4" height="4" transform="rotate(0,46,78)"/><rect x="44" y="80" width="4" height="4" transform="rotate(0,46,82)"/><rect x="44" y="84" width="4" height="4" transform="rotate(0,46,86)"/><rect x="44" y="88" width="4" height="4" transform="rotate(0,46,90)"/><rect x="48" y="16" width="4" height="4" transform="rotate(0,50,18)"/><rect x="48" y="20" width="4" height="4" transform="rotate(0,50,22)"/><rect x="48" y="28" width="4" height="4" transform="rotate(0,50,30)"/><rect x="48" y="32" width="4" height="4" transform="rotate(0,50,34)"/><rect x="48" y="36" width="4" height="4" transform="rotate(0,50,38)"/><rect x="48" y="40" width="4" height="4" transform="rotate(0,50,42)"/><rect x="48" y="52" width="4" height="4" transform="rotate(0,50,54)"/><rect x="48" y="56" width="4" height="4" transform="rotate(0,50,58)"/><rect x="48" y="84" width="4" height="4" transform="rotate(0,50,86)"/><rect x="48" y="88" width="4" height="4" transform="rotate(0,50,90)"/><rect x="52" y="8" width="4" height="4" transform="rotate(0,54,10)"/><rect x="52" y="16" width="4" height="4" transform="rotate(0,54,18)"/><rect x="52" y="24" width="4" height="4" transform="rotate(0,54,26)"/><rect x="52" y="36" width="4" height="4" transform="rotate(0,54,38)"/><rect x="52" y="48" width="4" height="4" transform="rotate(0,54,50)"/><rect x="52" y="56" width="4" height="4" transform="rotate(0,54,58)"/><rect x="52" y="64" width="4" height="4" transform="rotate(0,54,66)"/><rect x="52" y="68" width="4" height="4" transform="rotate(0,54,70)"/><rect x="52" y="72" width="4" height="4" transform="rotate(0,54,74)"/><rect x="52" y="76" width="4" height="4" transform="rotate(0,54,78)"/><rect x="52" y="84" width="4" height="4" transform="rotate(0,54,86)"/><rect x="52" y="88" width="4" height="4" transform="rotate(0,54,90)"/><rect x="56" y="12" width="4" height="4" transform="rotate(0,58,14)"/><rect x="56" y="20" width="4" height="4" transform="rotate(0,58,22)"/><rect x="56" y="28" width="4" height="4" transform="rotate(0,58,30)"/><rect x="56" y="32" width="4" height="4" transform="rotate(0,58,34)"/><rect x="56" y="36" width="4" height="4" transform="rotate(0,58,38)"/><rect x="56" y="40" width="4" height="4" transform="rotate(0,58,42)"/><rect x="56" y="52" width="4" height="4" transform="rotate(0,58,54)"/><rect x="56" y="68" width="4" height="4" transform="rotate(0,58,70)"/><rect x="56" y="72" width="4" height="4" transform="rotate(0,58,74)"/><rect x="56" y="88" width="4" height="4" transform="rotate(0,58,90)"/><rect x="60" y="40" width="4" height="4" transform="rotate(0,62,42)"/><rect x="60" y="44" width="4" height="4" transform="rotate(0,62,46)"/><rect x="60" y="48" width="4" height="4" transform="rotate(0,62,50)"/><rect x="60" y="52" width="4" height="4" transform="rotate(0,62,54)"/><rect x="60" y="64" width="4" height="4" transform="rotate(0,62,66)"/><rect x="60" y="68" width="4" height="4" transform="rotate(0,62,70)"/><rect x="60" y="72" width="4" height="4" transform="rotate(0,62,74)"/><rect x="60" y="80" width="4" height="4" transform="rotate(0,62,82)"/><rect x="60" y="88" width="4" height="4" transform="rotate(0,62,90)"/><rect x="64" y="52" width="4" height="4" transform="rotate(0,66,54)"/><rect x="64" y="68" width="4" height="4" transform="rotate(0,66,70)"/><rect x="64" y="72" width="4" height="4" transform="rotate(0,66,74)"/><rect x="64" y="76" width="4" height="4" transform="rotate(0,66,78)"/><rect x="68" y="40" width="4" height="4" transform="rotate(0,70,42)"/><rect x="68" y="44" width="4" height="4" transform="rotate(0,70,46)"/><rect x="68" y="52" width="4" height="4" transform="rotate(0,70,54)"/><rect x="68" y="56" width="4" height="4" transform="rotate(0,70,58)"/><rect x="68" y="68" width="4" height="4" transform="rotate(0,70,70)"/><rect x="68" y="72" width="4" height="4" transform="rotate(0,70,74)"/><rect x="68" y="76" width="4" height="4" transform="rotate(0,70,78)"/><rect x="68" y="80" width="4" height="4" transform="rotate(0,70,82)"/><rect x="68" y="84" width="4" height="4" transform="rotate(0,70,86)"/><rect x="68" y="88" width="4" height="4" transform="rotate(0,70,90)"/><rect x="72" y="44" width="4" height="4" transform="rotate(0,74,46)"/><rect x="72" y="56" width="4" height="4" transform="rotate(0,74,58)"/><rect x="72" y="60" width="4" height="4" transform="rotate(0,74,62)"/><rect x="72" y="64" width="4" height="4" transform="rotate(0,74,66)"/><rect x="72" y="68" width="4" height="4" transform="rotate(0,74,70)"/><rect x="72" y="80" width="4" height="4" transform="rotate(0,74,82)"/><rect x="72" y="84" width="4" height="4" transform="rotate(0,74,86)"/><rect x="72" y="88" width="4" height="4" transform="rotate(0,74,90)"/><rect x="76" y="40" width="4" height="4" transform="rotate(0,78,42)"/><rect x="76" y="44" width="4" height="4" transform="rotate(0,78,46)"/><rect x="76" y="48" width="4" height="4" transform="rotate(0,78,50)"/><rect x="76" y="52" width="4" height="4" transform="rotate(0,78,54)"/><rect x="76" y="64" width="4" height="4" transform="rotate(0,78,66)"/><rect x="76" y="84" width="4" height="4" transform="rotate(0,78,86)"/><rect x="80" y="40" width="4" height="4" transform="rotate(0,82,42)"/><rect x="80" y="56" width="4" height="4" transform="rotate(0,82,58)"/><rect x="80" y="64" width="4" height="4" transform="rotate(0,82,66)"/><rect x="80" y="80" width="4" height="4" transform="rotate(0,82,82)"/><rect x="84" y="40" width="4" height="4" transform="rotate(0,86,42)"/><rect x="84" y="48" width="4" height="4" transform="rotate(0,86,50)"/><rect x="84" y="60" width="4" height="4" transform="rotate(0,86,62)"/><rect x="84" y="68" width="4" height="4" transform="rotate(0,86,70)"/><rect x="84" y="88" width="4" height="4" transform="rotate(0,86,90)"/><rect x="88" y="60" width="4" height="4" transform="rotate(0,90,62)"/><rect x="88" y="80" width="4" height="4" transform="rotate(0,90,82)"/><path clip-rule="evenodd" d="M 8 18v 8a 10 10, 0, 0, 0, 10 10h 8a 10 10, 0, 0, 0, 10 -10v -8a 10 10, 0, 0, 0, -10 -10h -8a 10 10, 0, 0, 0, -10 10M 18 12h 8a 6 6, 0, 0, 1, 6 6v 8a 6 6, 0, 0, 1, -6 6h -8a 6 6, 0, 0, 1, -6 -6v -8a 6 6, 0, 0, 1, 6 -6" transform="rotate(0,22,22)"/><rect x="16" y="16" width="4" height="4" transform="rotate(0,18,18)"/><rect x="16" y="20" width="4" height="4" transform="rotate(0,18,22)"/><rect x="16" y="24" width="4" height="4" transform="rotate(0,18,26)"/><rect x="20" y="16" width="4" height="4" transform="rotate(0,22,18)"/><rect x="20" y="20" width="4" height="4" transform="rotate(0,22,22)"/><rect x="20" y="24" width="4" height="4" transform="rotate(0,22,26)"/><rect x="24" y="16" width="4" height="4" transform="rotate(0,26,18)"/><rect x="24" y="20" width="4" height="4" transform="rotate(0,26,22)"/><rect x="24" y="24" width="4" height="4" transform="rotate(0,26,26)"/><path clip-rule="evenodd" d="M 64 18v 8a 10 10, 0, 0, 0, 10 10h 8a 10 10, 0, 0, 0, 10 -10v -8a 10 10, 0, 0, 0, -10 -10h -8a 10 10, 0, 0, 0, -10 10M 74 12h 8a 6 6, 0, 0, 1, 6 6v 8a 6 6, 0, 0, 1, -6 6h -8a 6 6, 0, 0, 1, -6 -6v -8a 6 6, 0, 0, 1, 6 -6" transform="rotate(90,78,22)"/><rect x="72" y="16" width="4" height="4" transform="rotate(0,74,18)"/><rect x="72" y="20" width="4" height="4" transform="rotate(0,74,22)"/><rect x="72" y="24" width="4" height="4" transform="rotate(0,74,26)"/><rect x="76" y="16" width="4" height="4" transform="rotate(0,78,18)"/><rect x="76" y="20" width="4" height="4" transform="rotate(0,78,22)"/><rect x="76" y="24" width="4" height="4" transform="rotate(0,78,26)"/><rect x="80" y="16" width="4" height="4" transform="rotate(0,82,18)"/><rect x="80" y="20" width="4" height="4" transform="rotate(0,82,22)"/><rect x="80" y="24" width="4" height="4" transform="rotate(0,82,26)"/><path clip-rule="evenodd" d="M 8 74v 8a 10 10, 0, 0, 0, 10 10h 8a 10 10, 0, 0, 0, 10 -10v -8a 10 10, 0, 0, 0, -10 -10h -8a 10 10, 0, 0, 0, -10 10M 18 68h 8a 6 6, 0, 0, 1, 6 6v 8a 6 6, 0, 0, 1, -6 6h -8a 6 6, 0, 0, 1, -6 -6v -8a 6 6, 0, 0, 1, 6 -6" transform="rotate(-90,22,78)"/><rect x="16" y="72" width="4" height="4" transform="rotate(0,18,74)"/><rect x="16" y="76" width="4" height="4" transform="rotate(0,18,78)"/><rect x="16" y="80" width="4" height="4" transform="rotate(0,18,82)"/><rect x="20" y="72" width="4" height="4" transform="rotate(0,22,74)"/><rect x="20" y="76" width="4" height="4" transform="rotate(0,22,78)"/><rect x="20" y="80" width="4" height="4" transform="rotate(0,22,82)"/><rect x="24" y="72" width="4" height="4" transform="rotate(0,26,74)"/><rect x="24" y="76" width="4" height="4" transform="rotate(0,26,78)"/><rect x="24" y="80" width="4" height="4" transform="rotate(0,26,82)"/></clipPath></defs><rect x="0" y="0" height="100" width="100" clip-path="url('#clip-path-background-color')" fill="#fff"/><rect x="8" y="8" height="84" width="84" clip-path="url('#clip-path-dot-color')" fill="#000"/></svg>